<svg viewBox="0 0 150 150" fill="none" xmlns="http://www.w3.org/2000/svg"><rect width="150" height="150" rx="26" fill="#ffffff"/><g transform="translate(150,0) scale(-1,1)"><path d="M121.362 77.91L131.781 117H118.862L113.981 99H75V117H62.5V99L44.95 86.364C37.7 94.896 27.025 102 18.75 102V73.176V73.002L6.25 69V63H33.0687L55.2938 47.22C57.3313 45.834 59.8125 45 62.5 45C64.2625 45 65.9312 45.36 67.45 45.99L116.537 69H120.212C123.862 69 128.125 67.428 128.125 63C128.125 58.572 123.862 57 120.212 57C110.475 57 103.125 49.26 103.125 39V21H109.375L118.75 39H112.5C112.5 44.214 115.75 48 120.212 48C130.231 48 137.5 54.306 137.5 63C137.5 71.346 130.762 77.436 121.362 77.91Z" fill="#1f2937"/></g></svg>
